<svg xmlns="http://www.w3.org/2000/svg" xmlns:xlink="http://www.w3.org/1999/xlink" viewBox="0 0 22 22">
  <defs>
    <clipPath id="xsvg-a" clipPathUnits="userSpaceOnUse">
      <path d="M-8.25 0h16.5v-16.5h-16.5Z" />
    </clipPath>
    <clipPath id="xsvg-b" clipPathUnits="userSpaceOnUse">
      <path d="M0 8.25h16.5v-16.5H0Z" />
    </clipPath>
    <clipPath id="xsvg-c" clipPathUnits="userSpaceOnUse">
      <path d="M-8.25 16.5h16.5V0h-16.5Z" />
    </clipPath>
    <clipPath id="xsvg-d" clipPathUnits="userSpaceOnUse">
      <path d="M-16.5 8.25H0v-16.5h-16.5Z" />
    </clipPath>
  </defs>
  <path d="M0 0v-5.25" clip-path="url(#xsvg-a)" fill="none" stroke="white" stroke-width="0.333" stroke-linecap="butt" stroke-linejoin="miter" stroke-miterlimit="10" transform="matrix(1.33333 0 0 -1.33333 11 0)" />
  <path d="M0 0h5.25" clip-path="url(#xsvg-b)" fill="none" stroke="white" stroke-width="0.333" stroke-linecap="butt" stroke-linejoin="miter" stroke-miterlimit="10" transform="matrix(1.33333 0 0 -1.33333 0 11)" />
  <path d="M0 0v5.25" clip-path="url(#xsvg-c)" fill="none" stroke="white" stroke-width="0.333" stroke-linecap="butt" stroke-linejoin="miter" stroke-miterlimit="10" transform="matrix(1.33333 0 0 -1.33333 11 22)" />
  <path d="M0 0h-5.25" clip-path="url(#xsvg-d)" fill="none" stroke="white" stroke-width="0.333" stroke-linecap="butt" stroke-linejoin="miter" stroke-miterlimit="10" transform="matrix(1.33333 0 0 -1.33333 22 11)" />
  <path d="M0 0v1.5" fill="none" stroke="white" stroke-width="0.333" stroke-linecap="butt" stroke-linejoin="miter" stroke-miterlimit="10" transform="matrix(1.33333 0 0 -1.33333 11 12)" />
  <path d="m0 0-3 3 3 3 3-3Z" fill="none" stroke="white" stroke-width="0.333" stroke-linecap="butt" stroke-linejoin="miter" stroke-miterlimit="10" transform="matrix(1.33333 0 0 -1.33333 11 15)" />
  <path d="M0 0h1.5" fill="none" stroke="white" stroke-width="0.333" stroke-linecap="butt" stroke-linejoin="miter" stroke-miterlimit="10" transform="matrix(1.33333 0 0 -1.33333 10 11)" />
</svg>
